<?xml version="1.0" encoding="utf-8"?>
<!-- Generator: Adobe Illustrator 24.0.0, SVG Export Plug-In . SVG Version: 6.00 Build 0)  -->
<svg version="1.1" id="Слой_1" xmlns="http://www.w3.org/2000/svg" xmlns:xlink="http://www.w3.org/1999/xlink" x="0px" y="0px"
   viewBox="0 0 646.5 402" style="enable-background:new 0 0 646.5 402;" xml:space="preserve">
  <style type="text/css">
    .st0{fill:#004830;}
    .st1{fill:#9AC41D;}
  </style>
  <g id="Слой_2_1_">
    <path class="st0" d="M465.7,278.8l-2.5-0.3c0-0.2,2.7-22.8-4.5-47.4c-9.6-32.8-31.2-53.4-64.3-61.2c-35.4-8.3-66.2-0.3-91.3,23.8
      c-9.8,9.4-16.7,19.5-20.8,26.3c-4.4,7.4-6.5,12.6-6.5,12.7l-2.3-0.9c0.1-0.2,2.2-5.4,6.7-13c4.1-7,11.2-17.3,21.2-26.9
      c11.3-10.8,24-18.6,37.7-23.1c17.2-5.6,36-6.1,56-1.4c18.7,4.4,34.1,13,45.7,25.6c9.3,10.1,16.2,22.6,20.5,37.4
      c3.8,13.1,4.9,25.5,5.1,33.7C466.4,272.9,465.7,278.6,465.7,278.8z"/>
    <path class="st0" d="M442.3,266.3l-2.5-0.2c0-0.2,1.9-22.2-3.4-45.2c-7-30.4-22.5-47.9-46.2-51.9c-25.8-4.4-48.4,5.6-67.1,29.7
      c-14.1,18.1-20.6,37.7-20.6,37.9l-2.4-0.8c0.1-0.2,6.7-20.2,21-38.6c8.5-10.9,17.9-19.1,28.1-24.4c12.8-6.7,26.7-8.8,41.5-6.3
      c13.6,2.3,24.9,9,33.4,20c6.7,8.7,11.8,20.1,14.9,33.8C444.2,243.7,442.3,266.1,442.3,266.3z"/>
    <path class="st0" d="M414.3,254.8l-2.5-0.4c0-0.2,2.7-19.7,1.8-39.8c-0.5-11.8-2.2-21.5-4.9-28.8c-3.3-8.9-8.1-14.3-14.4-15.9
      c-14.4-3.8-29.6,16.9-39.9,35c-11.3,19.9-19,41-19.1,41.2l-2.4-0.9c0.1-0.2,7.9-21.5,19.3-41.6c6.7-11.8,13.3-21,19.6-27.1
      c8.1-7.9,15.9-11,23.1-9.1c7.1,1.9,12.6,7.8,16.2,17.5c2.8,7.6,4.5,17.5,5,29.6C417,234.9,414.3,254.6,414.3,254.8z"/>
    <path class="st0" d="M418.3,251.1c-12.7,0-27.5-0.9-42.5-3.9c-11.4-2.3-22.8-6-34.1-11c-9-4-17.9-8.9-26.4-14.5
      c-14.5-9.5-23.1-18-23.2-18l1.8-1.8c0.1,0.1,8.5,8.4,22.9,17.8c13.2,8.6,34.3,20,59.6,25c22.5,4.5,44.8,4.2,59.6,3.2
      c16.1-1.1,27-3.2,27.1-3.2l0.5,2.5c-0.1,0-11.1,2.2-27.3,3.3C431,250.8,424.9,251.1,418.3,251.1z"/>
    <path class="st0" d="M430.7,227.4c-10.9,0-26.2-1.2-45.8-5.3c-11.3-2.4-22.2-5.8-32.5-10.2c-8.2-3.5-15.9-7.5-23.1-12.1
      c-12.2-7.7-18.2-14.1-18.4-14.4l1.8-1.7c0.1,0.1,6.1,6.5,18,14c11,7,29.4,16.5,54.6,21.9c25,5.3,42.8,5.7,53.4,5
      c11.5-0.7,17.1-2.7,17.1-2.7l0.9,2.4c-0.2,0.1-5.9,2.1-17.7,2.8C436.7,227.3,433.9,227.4,430.7,227.4z M311.9,184.6l0.9-0.9
      c0,0,0,0,0,0L311.9,184.6z"/>
    <path class="st0" d="M425.6,205.9c-7.5,0-17.4-0.7-29.8-2.9c-19.7-3.5-35.6-11.3-45.5-17.2c-10.7-6.4-16.7-12-16.9-12.2l1.7-1.8
      c0.1,0.1,6.1,5.6,16.6,12c9.7,5.8,25.3,13.5,44.6,16.9c17.9,3.2,30.5,3.1,37.9,2.5c8-0.7,11.8-2.1,11.9-2.1l0.9,2.3
      c-0.2,0.1-4.1,1.5-12.4,2.2C432,205.7,429,205.9,425.6,205.9z"/>
    <path class="st0" d="M422.2,185.9c-7.8,0-20.5-0.4-31.5-2.7c-18.5-3.8-35.5-15.3-36.3-15.8l1.4-2.1c0.2,0.1,17.4,11.7,35.3,15.4
      c16.9,3.5,38,2.5,38.2,2.5l0.1,2.5C429.4,185.8,426.6,185.9,422.2,185.9z"/>
    <rect x="342" y="208.9" transform="matrix(0.2351 -0.972 0.972 0.2351 89.9646 534.5527)" class="st0" width="85.2" height="2.5"/>
  </g>
  <g id="Слой_3">
    <path class="st0" d="M467.2,130.6c0,0-43.4-58-128.5-18.6c-50.9,23.5-76.8,80.8-76.8,80.8l27.6,0.6c0,0,19.8-44.8,64.5-65
      C420.8,98.3,467.2,130.6,467.2,130.6z"/>
    <path class="st0" d="M310.9,120.5c0,0,76.3-69.4,167.4,2.1c41.8,32.8,44.3,103.1,44.3,103.1l83.1-1.6c0,0-22.6-109.9-113.5-141.3
      C373.7,42,310.9,120.5,310.9,120.5z"/>
    <polygon class="st0" points="480.6,132.1 394.6,192.8 401.5,201.2 481.7,133.6   "/>
    <circle class="st0" cx="379.4" cy="210.9" r="18.1"/>
    <g>
      <g>
        
        
          M568.8,271c7,0,12.2-3.9,13.3-9.8c1-5.7-2.7-9.4-9.6-9.4h-9.6l-3.5,19.2H568.8z"/>
      </g>
    </g>
    <g>
      <path class="st0" d="M50.1,335.4c0-7.8,5.9-13.5,14-13.5c5.5,0,10.4,3.1,11.8,7.3l-3.1,1c-1.1-3.2-4.8-5.4-8.8-5.4
        c-6.2,0-10.7,4.4-10.7,10.6c0,6.2,4.5,10.7,10.7,10.7c5.6,0,10-3.9,10.2-9l-12.9,0v-2.9h16.3c0.5,8.6-5.1,14.8-13.6,14.8
        C56,348.9,50.1,343.2,50.1,335.4z"/>
      <path class="st0" d="M86.1,322.8h3.4v22.4h13.1v2.9H86.1V322.8z"/>
      <path class="st0" d="M107,335.4c0-7.9,5.8-13.5,14.1-13.5s14.1,5.6,14.1,13.5c0,7.9-5.8,13.5-14.1,13.5S107,343.3,107,335.4z M131.8,335.4c0-6.2-4.4-10.6-10.7-10.6c-6.2,0-10.7,4.4-10.7,10.6s4.5,10.7,10.7,10.7S131.8,341.5,131.8,335.4z"/>
      <path class="st0" d="M143.5,322.8h11.3c4.8,0,8.2,2.8,8.2,6.8c0,2.4-1.6,4.6-3.8,5.2v0.4c2.7,0.7,4.5,3.1,4.5,5.8
        c0,4.1-3.8,7.1-9,7.1h-11.3L143.5,322.8L143.5,322.8z M154.4,333.6c3.1,0,5.3-1.6,5.3-4c0-2.3-2.2-4-5.3-4h-7.5v8H154.4z
        M154.3,345.1c3.6,0,6.1-1.9,6.1-4.4c0-2.5-2.5-4.3-6.1-4.3h-7.5v8.7L154.3,345.1L154.3,345.1z"/>
      <path class="st0" d="M179.5,322.8h4.6l9.7,25.2h-3.2l-2.2-5.7h-13.2l-2.2,5.7h-3.2L179.5,322.8z M187.4,339.7l-5.5-14h-0.3
        l-5.5,14H187.4z"/>
      <path class="st0" d="M201.4,322.8h3.4v22.4h13.1v2.9h-16.5V322.8z"/>
      <path class="st0" d="M236.1,335.4c0-7.8,5.7-13.5,13.5-13.5c5.9,0,11,3.9,12.3,9.2l-3.3,0.4c-1-3.9-4.8-6.7-9-6.7
        c-5.9,0-10.1,4.5-10.1,10.6c0,6.2,4.3,10.7,10.1,10.7c4.2,0,8-2.8,9.1-6.5l3.2,0.6c-1.3,5-6.5,8.7-12.3,8.7
        C241.7,348.9,236,343.2,236.1,335.4z"/>
      <path class="st0" d="M276.9,322.8h4.6l9.7,25.2H288l-2.2-5.7h-13.2l-2.2,5.7h-3.2L276.9,322.8z M284.8,339.7l-5.5-14H279l-5.5,14
        H284.8z"/>
      <path class="st0" d="M298.8,322.8h11.3c5.7,0,9.4,3,9.4,7.7c0,4.3-3.5,7.3-8.3,7.5h-0.4l9.4,10.1h-4.3l-9-9.9h-4.8v9.9h-3.4
        L298.8,322.8L298.8,322.8z M310.1,335.3c3.7,0,6-1.9,6-4.8c0-2.9-2.3-4.8-6-4.8h-8v9.6L310.1,335.3L310.1,335.3z"/>
      <path class="st0" d="M340.1,322.8H358v2.9h-14.5v7.9h13v2.9h-13v8.8h14.8v2.9h-18.2L340.1,322.8L340.1,322.8z"/>
      <path class="st0" d="M373.9,334.6l-9-11.9h3.8l7.2,10h0.3l7.5-10h3.8l-9.2,11.9l9.6,13.3h-3.8l-7.9-11.2H376l-7.6,11.2h-3.8
        L373.9,334.6z"/>
      <path class="st0" d="M395.8,322.8h10.4c5.7,0,9.4,2.9,9.3,7.7c0,4.8-3.8,7.7-9.3,7.7h-7.1v9.8h-3.3V322.8z M406.2,335.3
        c3.8,0,6-1.9,6-4.8c0-3-2.2-4.9-6-4.9h-7.1v9.7H406.2z"/>
      <path class="st0" d="M421.9,335.4c0-7.9,5.8-13.5,14.1-13.5c8.2,0,14.1,5.6,14.1,13.5c0,7.9-5.8,13.5-14.1,13.5
        C427.8,348.9,421.9,343.3,421.9,335.4z M446.7,335.4c0-6.2-4.4-10.6-10.7-10.6s-10.7,4.4-10.7,10.6S429.8,346,436,346
        S446.7,341.5,446.7,335.4z"/>
      <path class="st0" d="M458.4,322.8h11.3c5.7,0,9.4,3,9.4,7.7c0,4.3-3.5,7.3-8.3,7.5h-0.4l9.4,10.1h-4.3l-9-9.9h-4.8v9.9h-3.4
        L458.4,322.8L458.4,322.8z M469.7,335.3c3.7,0,6-1.9,6-4.8c0-2.9-2.3-4.8-6-4.8h-8v9.6L469.7,335.3L469.7,335.3z"/>
      <path class="st0" d="M493,325.6h-8.6v-2.9H505v2.9h-8.6V348H493L493,325.6L493,325.6z"/>
      <path class="st0" d="M511.9,322.8h17.9v2.9h-14.5v7.9h13v2.9h-13v8.8h14.8v2.9h-18.2L511.9,322.8L511.9,322.8z"/>
      <path class="st0" d="M538.5,322.8h11.3c5.7,0,9.4,3,9.4,7.7c0,4.3-3.5,7.3-8.3,7.5h-0.4l9.4,10.1h-4.3l-9-9.9h-4.8v9.9h-3.4
        L538.5,322.8L538.5,322.8z M549.8,335.3c3.7,0,6-1.9,6-4.8c0-2.9-2.3-4.8-6-4.8h-8v9.6L549.8,335.3L549.8,335.3z"/>
    </g>
  </g>
</svg>
